<svg width="665" height="31" viewBox="0 0 665 31" fill="none" xmlns="http://www.w3.org/2000/svg">
<path fill-rule="evenodd" clip-rule="evenodd" d="M220.461 28.2616C147.129 28.904 73.4968 26.5564 2.51655 16.699C1.25014 16.5238 0.724416 16.1793 0.6208 16.1004C0.0144599 15.6332 -0.0508917 15.1369 0.0258603 14.7281C0.0719115 14.4799 0.382892 13.4317 2.08295 13.3237C3.25725 13.2507 11.5924 13.7616 14.8083 13.893C29.9476 14.5091 45.0564 15.388 60.1574 16.4041C94.3964 18.6991 128.589 20.6846 162.882 22.492C182.135 23.5081 201.396 24.349 220.646 25.0381C266.954 24.6264 313.147 23.0205 358.477 21.362C340.459 20.5182 323.904 19.6627 310.177 19.1079C287.029 18.1735 263.922 17.0698 240.82 15.6157C228.95 14.8712 217.096 14.0624 205.249 13.1076C203.937 12.9995 200.947 12.8886 199.5 12.7572C198.886 12.7046 198.441 12.6199 198.242 12.5616C196.991 12.1937 196.833 11.4404 196.818 11.0608C196.81 10.8301 196.914 9.57163 199.025 9.32637C297.164 -2.1837 399.551 11.2068 498.043 0.0178699C499.198 -0.113523 500.28 0.493813 500.453 1.37561C500.625 2.25448 499.827 3.07789 498.668 3.20929C405.906 13.747 309.686 2.47931 216.804 10.7513C224.921 11.3498 233.041 11.89 241.169 12.401C264.229 13.8521 287.293 14.9529 310.403 15.8873C333.659 16.8245 365.097 18.6553 398.004 19.8087C426.245 18.6115 454.47 17.2684 482.715 16.1296C494.631 15.6508 506.551 15.2537 518.463 14.7661C523.359 14.5675 535.958 13.7354 537.785 14.0449C539.205 14.2872 539.546 15.061 539.631 15.4493C539.719 15.8698 539.665 16.3924 539.021 16.8917C538.821 17.0494 538.222 17.3764 536.994 17.645C503.78 24.8833 449.393 24.7695 398.457 23.0205C387.501 23.4877 376.544 23.9315 365.584 24.3315C340.494 25.2513 315.127 26.1739 289.615 26.901C361.512 28.2529 433.444 27.8645 505.395 26.8864C535.605 26.4747 617.035 23.9928 649.106 21.8C648.714 21.4934 648.484 21.0671 648.511 20.6028C648.565 19.7152 649.559 19.0261 650.729 19.067C657.345 19.3006 661.171 19.5984 662.687 19.905C663.631 20.0948 664.145 20.3984 664.383 20.597C664.967 21.0759 665.074 21.5898 664.959 22.0774C664.886 22.381 664.706 22.7139 664.291 23.0205C664.015 23.2307 663.34 23.5519 662.188 23.7709C649.582 26.1564 541.442 29.6223 505.472 30.1128C410.419 31.4034 315.404 31.6662 220.461 28.2616ZM511.282 18.2816C492.708 20.1999 470.934 20.8744 448.219 20.8306C459.789 20.3196 471.364 19.8203 482.942 19.3531C492.386 18.9706 501.834 18.6436 511.282 18.2816ZM132.857 24.095C108.488 22.7285 84.1461 21.251 59.785 19.6159C56.9721 19.4291 54.163 19.2451 51.35 19.0641C78.2899 21.5751 105.51 23.1723 132.857 24.095Z" fill="#FCC502"/>
</svg>
